<svg xmlns="http://www.w3.org/2000/svg" xmlns:xlink="http://www.w3.org/1999/xlink" version="1.1" id="Layer_1" x="0px" y="0px" width="100%" viewBox="0 0 728 1319" enable-background="new 0 0 728 1319" xml:space="preserve">

<circle cx="364" cy="659" r="690" fill="#FFFFFF" opacity="1.0" stroke="black" />

<path fill="#FFFFFF" opacity="1.000000" stroke="none" d=" M1.000000,528.000000   C1.000000,352.021423 1.000000,176.542831 1.000000,1.032119   C243.615631,1.032119 486.231293,1.032119 728.923462,1.032119   C728.923462,440.562012 728.923462,880.124023 728.923462,1319.843018   C486.333405,1319.843018 243.666718,1319.843018 1.000000,1319.843018   C1.000000,1056.101929 1.000000,792.300964 1.000000,528.000000  M473.067322,661.125427   C472.675629,645.330261 474.351379,629.905396 478.665375,614.552856   C483.276062,598.144531 487.794647,581.766052 495.586365,566.567444   C503.969788,550.214600 512.849365,534.115845 521.532837,517.917114   C527.254272,507.243866 533.186340,496.678986 538.688293,485.894196   C542.066772,479.271729 539.737366,475.850403 532.223328,475.737671   C525.260498,475.633179 518.294983,475.715363 511.452240,475.715363   C510.554718,480.587433 509.937408,484.481110 509.105408,488.328400   C507.838654,494.185791 505.355774,496.676025 499.438843,495.707672   C494.696808,494.931580 490.278534,492.177063 485.230103,490.100464   C482.376373,499.763550 478.525421,509.969452 476.425507,520.523743   C472.462036,540.444214 470.001373,560.666443 465.930573,580.561584   C463.772339,591.109436 459.842743,601.341736 456.157562,611.515381   C453.210480,619.651367 441.894257,621.111572 436.756470,613.645203   C434.340240,610.133850 432.240265,606.268311 430.743164,602.283020   C420.314240,574.520813 418.779297,545.139526 415.332245,516.107727   C414.405670,508.303864 414.528870,500.187073 410.137177,493.252686   C408.975647,491.418640 405.491974,488.853027 404.876099,489.271973   C402.674500,490.769379 399.939606,493.290497 399.734863,495.628326   C398.178741,513.394348 397.018951,531.200134 396.042603,549.010376   C395.072998,566.698486 394.505585,584.408264 393.679718,602.104736   C392.831909,620.270325 391.868591,638.430542 390.985626,656.594604   C390.165619,673.463745 389.991089,690.392883 388.382935,707.185547   C387.229431,719.231140 384.341644,731.128540 381.866119,743.016846   C381.251923,745.966309 379.714050,748.833374 375.622711,749.114502   C371.246002,749.415222 368.034363,748.216797 366.570343,743.956543   C363.045197,733.698547 358.728821,723.596008 356.437408,713.059753   C353.514648,699.620667 352.054535,685.843201 350.361053,672.162415   C348.422028,656.497986 346.806305,640.790710 345.257721,625.081604   C343.724152,609.524658 342.496490,593.937927 341.048187,578.372253   C339.431549,560.997498 337.906616,543.610596 335.962067,526.271545   C335.061066,518.237366 331.951538,510.970032 325.895996,505.198883   C323.026215,502.463867 321.261047,503.284363 320.140106,506.613007   C319.193573,509.423615 318.153381,512.270691 317.748749,515.184143   C315.899719,528.496826 313.993652,541.811096 312.612488,555.176880   C310.885834,571.885803 309.000183,588.620789 308.358032,605.389465   C307.371948,631.139282 307.443481,656.928650 306.952484,682.698975   C306.727997,694.479187 306.519257,706.272217 305.785187,718.027100   C304.923035,731.832031 303.446564,745.597595 302.332977,759.388062   C301.442566,770.415039 301.010895,781.487915 299.810669,792.478760   C298.134338,807.829468 296.248657,823.172974 293.829407,838.420654   C292.498962,846.806152 290.011322,855.021240 287.797424,863.246460   C286.990448,866.244568 284.761780,867.409363 281.375885,867.535278   C275.272339,867.762146 273.917877,863.135071 272.273529,859.196594   C264.865662,841.453247 262.367981,822.482971 259.208344,803.730286   C257.022980,790.760010 255.664108,777.647949 254.041122,764.586182   C252.313004,750.678223 250.555145,736.770996 249.100906,722.833069   C248.005600,712.335327 247.460693,701.781311 246.505814,691.267395   C245.150528,676.344543 243.558060,661.443054 242.224442,646.518372   C240.744568,629.957092 239.691147,613.354309 237.996201,596.816406   C236.065002,577.973328 232.413727,559.452332 225.690857,541.651794   C221.432388,530.376465 216.263901,519.672852 207.090317,511.385651   C200.458450,505.394623 195.547501,504.428284 189.768768,508.297455   C180.013855,514.828857 166.055634,513.464600 157.788651,505.189880   C152.044525,499.440399 149.639008,492.109253 147.796173,484.471436   C147.484238,483.178558 146.911224,481.421539 145.924042,480.908997   C141.390732,478.555389 136.766449,476.302185 131.985657,474.520447   C126.898529,472.624573 122.768463,474.723541 120.979935,479.890472   C120.244499,482.015106 120.099686,484.399017 119.999916,486.678711   C119.680840,493.969299 116.066589,497.725342 108.874557,497.613464   C101.913460,497.505188 94.958237,496.944794 87.997910,496.886932   C83.241173,496.847382 80.844658,500.095703 82.949791,504.312653   C86.092369,510.607758 89.653191,516.773438 93.739296,522.491699   C96.704498,526.641296 101.199448,529.673828 104.341370,533.724792   C126.217735,561.930847 141.267715,593.790588 152.379028,627.428101   C161.245010,654.268250 162.463486,682.271790 161.130768,710.338074   C160.333755,727.122864 158.803497,743.873108 158.027725,760.658508   C157.162430,779.380920 158.939575,797.931274 162.021317,816.435059   C165.912628,839.799866 173.704834,861.685364 185.534164,882.109131   C195.675781,899.619019 205.997131,917.034363 216.661240,934.229614   C229.761673,955.353333 241.463516,977.351135 257.411316,996.696045   C267.741394,1009.226562 276.507202,1023.034180 286.541840,1035.823853   C299.156891,1051.902588 303.825928,1070.173096 301.440216,1089.958984   C298.927826,1110.795532 289.159821,1128.556763 273.156952,1142.055420   C261.385895,1151.984253 248.782288,1161.105713 235.732285,1169.282349   C225.176788,1175.896118 213.515656,1180.812500 202.131927,1186.015625   C193.320770,1190.042847 186.003983,1195.209839 182.909195,1204.890259   C179.842163,1214.483887 187.677765,1225.268188 197.742142,1225.268311   C297.901367,1225.269775 398.060608,1225.269653 498.219849,1225.268677   C507.669403,1225.268677 516.838684,1212.202759 513.578857,1203.133301   C511.039246,1196.067627 506.154083,1190.896362 499.266937,1187.959717   C475.039948,1177.629761 452.194031,1164.979004 431.493134,1148.577881   C418.577911,1138.345215 405.839874,1128.139282 396.989136,1113.720459   C380.270020,1086.483276 379.165527,1058.986084 394.439972,1031.000122   C405.009613,1011.634338 416.969940,992.970764 426.614227,973.168091   C448.623718,927.975891 468.811005,881.996643 482.614868,833.438660   C491.166046,803.358032 497.040863,773.118103 493.024384,741.710999   C491.921478,733.086609 490.841248,724.386169 488.722260,715.979858   C484.146576,697.827820 475.200195,680.929443 473.067322,661.125427  M659.476624,358.280945   C656.257263,348.536102 653.512634,338.602783 649.732361,329.080627   C636.755127,296.392456 620.964539,265.037476 602.637085,235.052887   C589.775818,214.011108 576.475708,193.174957 562.191223,173.086334   C551.553589,158.126419 539.231750,144.333679 527.246521,130.376205   C521.844666,124.085495 515.932861,123.850700 509.121582,128.789612   C496.526978,137.922119 489.313538,150.988251 486.207275,165.623123   C478.531158,201.788422 471.855591,238.167389 465.012512,274.504669   C464.642822,276.467651 465.909851,279.246338 467.278473,280.952728   C486.518555,304.941376 501.753204,331.228210 511.940063,360.229553   C517.022583,374.699219 520.792969,389.629822 525.204224,404.511658   C528.070740,404.298218 531.369019,404.083038 534.661743,403.802734   C565.733521,401.157379 596.791687,398.338776 627.879944,395.904236   C648.835205,394.263275 661.587158,379.850891 659.476624,358.280945  M306.925568,453.503265   C312.713165,449.739471 318.748718,446.303650 324.241821,442.150421   C340.792450,429.636871 346.691132,414.603821 339.589355,394.792114   C328.473755,363.783112 307.556641,340.909760 276.967957,328.346161   C244.912018,315.179932 213.371078,318.594299 183.804474,336.218903   C155.537933,353.068573 136.578201,377.484772 128.479095,409.706879   C125.142677,422.980804 127.865105,434.780670 137.612839,444.984497   C145.461426,453.200348 155.124374,458.083496 165.499969,461.762512   C180.791794,467.184723 196.693710,469.522156 212.873245,470.131226   C245.158905,471.346527 276.466675,466.997070 306.925568,453.503265  M341.280670,291.732452   C337.744598,295.264526 333.819000,298.488770 330.741150,302.383026   C318.619080,317.720581 318.729645,328.756592 332.446594,340.342499   C335.613190,343.017120 338.983734,345.457397 342.329132,347.911896   C354.801361,357.062622 362.656311,368.672974 362.278015,384.783630   C362.102173,392.272888 361.934052,399.765686 361.972260,407.255829   C362.042053,420.927856 369.559387,430.057404 383.016907,432.078583   C389.380859,433.034363 395.937195,433.192169 402.386047,433.006195   C419.754852,432.505280 436.935455,433.121094 453.774048,438.103271   C463.154755,440.878876 472.692169,443.137695 482.194733,445.484619   C489.620636,447.318695 495.269226,444.450836 499.230621,438.206085   C504.641815,429.675751 505.600250,420.057251 504.794983,410.360596   C502.783844,386.142761 494.712921,363.855652 482.163879,343.157959   C464.178955,313.494659 440.207977,291.285187 405.974731,281.580078   C383.009308,275.069397 361.378021,275.955505 341.280670,291.732452  M334.290070,196.509506   C326.203156,202.190094 317.712769,207.383270 310.123932,213.665527   C298.758667,223.074081 290.489166,234.745331 288.363739,249.858109   C287.695374,254.610474 287.651184,259.454041 286.915527,264.192871   C284.964386,276.762238 289.090210,287.586914 296.037537,297.690735   C299.675507,302.981628 303.888519,304.740540 310.532135,300.659332   C315.243683,297.764923 319.212433,293.083160 322.423004,288.444855   C328.957611,279.004517 336.278809,270.484192 347.548065,267.159241   C374.330505,259.257324 400.967163,257.493408 426.567383,271.621796   C430.333344,273.700165 432.595337,271.501740 433.676178,268.811340   C435.312378,264.738586 437.327393,260.098846 436.807617,256.001099   C434.276337,236.044540 425.873871,218.801727 408.021698,208.477310   C385.456268,195.427094 361.141022,189.645737 334.290070,196.509506  M220.181702,183.258987   C209.805893,177.774490 193.405289,183.773621 185.534302,191.672211   C183.152527,194.062378 182.459229,196.058716 183.580704,199.464737   C193.907455,230.827438 204.000229,262.267120 214.191345,293.674591   C215.550980,297.864838 217.079147,302.000397 218.267410,305.409912   C231.939941,305.409912 244.827072,305.409912 258.138245,305.409912   C245.478531,264.433075 233.045227,224.189072 220.181702,183.258987  M124.317238,239.694946   C115.945892,244.015289 110.370010,250.724106 107.069145,259.503540   C106.083115,262.126099 106.369118,263.988464 108.267548,266.175171   C116.439301,275.587860 124.386360,285.195190 132.453033,294.699585   C141.355133,305.188263 150.298492,315.641937 159.224518,326.111603   C171.290558,315.339630 185.344711,310.006866 201.470779,308.045624   C181.890289,286.106628 162.808350,264.640320 143.620392,243.269226   C135.942184,234.717453 135.835892,234.812897 124.317238,239.694946  M313.384277,183.204041   C314.765228,183.691147 316.255981,183.985596 317.508026,184.698975   C322.714355,187.665375 323.616425,187.424759 325.792511,182.110794   C327.943665,176.857758 329.935364,176.472244 334.182312,180.486816   C338.728058,184.783844 341.355438,184.764145 345.057739,179.748917   C347.231567,176.804184 349.560577,176.821457 352.405914,178.068954   C353.444733,178.524414 354.434326,179.092163 356.120972,179.952988   C349.922119,161.861618 332.106567,155.081390 313.446808,162.845169   C298.002594,169.271057 289.825836,187.592453 296.680664,201.304855   C299.861725,196.098801 306.439301,193.969070 307.481689,187.035965   C307.707245,185.535538 310.823242,184.469681 313.384277,183.204041  M341.728088,104.109192   C341.767029,103.178444 342.179352,101.658302 341.786346,101.409325   C338.354584,99.235229 334.778748,97.288498 331.309143,95.310440   C319.250610,112.782372 310.392517,140.126114 312.535950,152.935928   C315.361145,151.965927 318.153259,151.007278 320.854492,150.079834   C323.221954,125.561729 328.764740,113.121758 341.728088,104.109192  z"/>
<path fill="#010101" opacity="1.000000" stroke="none" d=" M473.057190,661.588379   C475.200195,680.929443 484.146576,697.827820 488.722260,715.979858   C490.841248,724.386169 491.921478,733.086609 493.024384,741.710999   C497.040863,773.118103 491.166046,803.358032 482.614868,833.438660   C468.811005,881.996643 448.623718,927.975891 426.614227,973.168091   C416.969940,992.970764 405.009613,1011.634338 394.439972,1031.000122   C379.165527,1058.986084 380.270020,1086.483276 396.989136,1113.720459   C405.839874,1128.139282 418.577911,1138.345215 431.493134,1148.577881   C452.194031,1164.979004 475.039948,1177.629761 499.266937,1187.959717   C506.154083,1190.896362 511.039246,1196.067627 513.578857,1203.133301   C516.838684,1212.202759 507.669403,1225.268677 498.219849,1225.268677   C398.060608,1225.269653 297.901367,1225.269775 197.742142,1225.268311   C187.677765,1225.268188 179.842163,1214.483887 182.909195,1204.890259   C186.003983,1195.209839 193.320770,1190.042847 202.131927,1186.015625   C213.515656,1180.812500 225.176788,1175.896118 235.732285,1169.282349   C248.782288,1161.105713 261.385895,1151.984253 273.156952,1142.055420   C289.159821,1128.556763 298.927826,1110.795532 301.440216,1089.958984   C303.825928,1070.173096 299.156891,1051.902588 286.541840,1035.823853   C276.507202,1023.034180 267.741394,1009.226562 257.411316,996.696045   C241.463516,977.351135 229.761673,955.353333 216.661240,934.229614   C205.997131,917.034363 195.675781,899.619019 185.534164,882.109131   C173.704834,861.685364 165.912628,839.799866 162.021317,816.435059   C158.939575,797.931274 157.162430,779.380920 158.027725,760.658508   C158.803497,743.873108 160.333755,727.122864 161.130768,710.338074   C162.463486,682.271790 161.245010,654.268250 152.379028,627.428101   C141.267715,593.790588 126.217735,561.930847 104.341370,533.724792   C101.199448,529.673828 96.704498,526.641296 93.739296,522.491699   C89.653191,516.773438 86.092369,510.607758 82.949791,504.312653   C80.844658,500.095703 83.241173,496.847382 87.997910,496.886932   C94.958237,496.944794 101.913460,497.505188 108.874557,497.613464   C116.066589,497.725342 119.680840,493.969299 119.999916,486.678711   C120.099686,484.399017 120.244499,482.015106 120.979935,479.890472   C122.768463,474.723541 126.898529,472.624573 131.985657,474.520447   C136.766449,476.302185 141.390732,478.555389 145.924042,480.908997   C146.911224,481.421539 147.484238,483.178558 147.796173,484.471436   C149.639008,492.109253 152.044525,499.440399 157.788651,505.189880   C166.055634,513.464600 180.013855,514.828857 189.768768,508.297455   C195.547501,504.428284 200.458450,505.394623 207.090317,511.385651   C216.263901,519.672852 221.432388,530.376465 225.690857,541.651794   C232.413727,559.452332 236.065002,577.973328 237.996201,596.816406   C239.691147,613.354309 240.744568,629.957092 242.224442,646.518372   C243.558060,661.443054 245.150528,676.344543 246.505814,691.267395   C247.460693,701.781311 248.005600,712.335327 249.100906,722.833069   C250.555145,736.770996 252.313004,750.678223 254.041122,764.586182   C255.664108,777.647949 257.022980,790.760010 259.208344,803.730286   C262.367981,822.482971 264.865662,841.453247 272.273529,859.196594   C273.917877,863.135071 275.272339,867.762146 281.375885,867.535278   C284.761780,867.409363 286.990448,866.244568 287.797424,863.246460   C290.011322,855.021240 292.498962,846.806152 293.829407,838.420654   C296.248657,823.172974 298.134338,807.829468 299.810669,792.478760   C301.010895,781.487915 301.442566,770.415039 302.332977,759.388062   C303.446564,745.597595 304.923035,731.832031 305.785187,718.027100   C306.519257,706.272217 306.727997,694.479187 306.952484,682.698975   C307.443481,656.928650 307.371948,631.139282 308.358032,605.389465   C309.000183,588.620789 310.885834,571.885803 312.612488,555.176880   C313.993652,541.811096 315.899719,528.496826 317.748749,515.184143   C318.153381,512.270691 319.193573,509.423615 320.140106,506.613007   C321.261047,503.284363 323.026215,502.463867 325.895996,505.198883   C331.951538,510.970032 335.061066,518.237366 335.962067,526.271545   C337.906616,543.610596 339.431549,560.997498 341.048187,578.372253   C342.496490,593.937927 343.724152,609.524658 345.257721,625.081604   C346.806305,640.790710 348.422028,656.497986 350.361053,672.162415   C352.054535,685.843201 353.514648,699.620667 356.437408,713.059753   C358.728821,723.596008 363.045197,733.698547 366.570343,743.956543   C368.034363,748.216797 371.246002,749.415222 375.622711,749.114502   C379.714050,748.833374 381.251923,745.966309 381.866119,743.016846   C384.341644,731.128540 387.229431,719.231140 388.382935,707.185547   C389.991089,690.392883 390.165619,673.463745 390.985626,656.594604   C391.868591,638.430542 392.831909,620.270325 393.679718,602.104736   C394.505585,584.408264 395.072998,566.698486 396.042603,549.010376   C397.018951,531.200134 398.178741,513.394348 399.734863,495.628326   C399.939606,493.290497 402.674500,490.769379 404.876099,489.271973   C405.491974,488.853027 408.975647,491.418640 410.137177,493.252686   C414.528870,500.187073 414.405670,508.303864 415.332245,516.107727   C418.779297,545.139526 420.314240,574.520813 430.743164,602.283020   C432.240265,606.268311 434.340240,610.133850 436.756470,613.645203   C441.894257,621.111572 453.210480,619.651367 456.157562,611.515381   C459.842743,601.341736 463.772339,591.109436 465.930573,580.561584   C470.001373,560.666443 472.462036,540.444214 476.425507,520.523743   C478.525421,509.969452 482.376373,499.763550 485.230103,490.100464   C490.278534,492.177063 494.696808,494.931580 499.438843,495.707672   C505.355774,496.676025 507.838654,494.185791 509.105408,488.328400   C509.937408,484.481110 510.554718,480.587433 511.452240,475.715363   C518.294983,475.715363 525.260498,475.633179 532.223328,475.737671   C539.737366,475.850403 542.066772,479.271729 538.688293,485.894196   C533.186340,496.678986 527.254272,507.243866 521.532837,517.917114   C512.849365,534.115845 503.969788,550.214600 495.586365,566.567444   C487.794647,581.766052 483.276062,598.144531 478.665375,614.552856   C474.351379,629.905396 472.675629,645.330261 473.057190,661.588379  M374.277863,812.243774   C380.593262,807.545898 380.418823,799.389465 373.738953,794.263672   C366.568237,788.761169 358.331696,788.253784 350.056366,790.519409   C336.043060,794.356018 329.651825,811.412537 336.355988,826.124878   C341.836151,838.151123 358.321869,842.732544 371.561035,835.908447   C378.983063,832.082764 380.397400,827.816895 376.842255,820.283875   C375.638885,817.733948 374.199432,816.549316 371.058716,817.402832   C366.094177,818.751892 359.983643,817.780457 358.715393,825.110291   C353.888092,820.862122 353.596619,808.268982 358.311127,803.778809   C358.885437,805.052917 359.861816,806.170715 359.766113,807.187622   C359.344513,811.666077 362.537811,812.528625 365.639954,812.957947   C368.218384,813.314758 370.918182,812.794800 374.277863,812.243774  M407.969513,838.792725   C413.616760,837.863892 419.078522,836.322388 422.816833,831.666443   C426.791840,826.715820 427.286713,820.907288 424.717712,815.286255   C421.779297,808.856995 415.732117,807.645142 409.320068,807.340759   C407.881439,807.272400 406.491058,806.187134 405.078461,805.570068   C406.509155,804.763306 408.004425,803.182251 409.358429,803.295166   C413.401764,803.632385 417.389709,804.633667 421.447235,805.384399   C425.451263,797.636047 423.741211,793.195007 415.555847,791.029663   C408.412903,789.140076 401.118805,788.824524 394.047760,791.085632   C387.686859,793.119629 383.289246,797.292908 382.241272,804.352661   C381.243500,811.074280 384.692627,814.461182 391.267212,814.811462   C395.261993,815.024231 399.424957,816.895020 402.971649,818.952942   C405.207550,820.250183 406.398865,823.272766 403.466095,826.533691   C402.193634,824.862061 401.122925,823.504944 400.105103,822.109253   C396.979736,817.823792 392.394806,818.216064 388.315826,819.308167   C384.585297,820.306885 382.681458,823.517517 382.804138,827.764160   C382.939392,832.445129 384.574951,836.074768 389.410675,836.909973   C395.246674,837.917969 401.190674,838.300537 407.969513,838.792725  M430.707794,824.614075   C430.456757,825.720154 430.034027,826.818665 429.984833,827.933655   C429.788818,832.375732 431.793915,835.629089 435.853180,837.335571   C440.045166,839.097717 444.070190,838.409058 447.168854,835.039734   C450.062347,831.893494 450.763458,828.178101 448.916504,824.061340   C445.848114,817.222229 434.793182,815.901917 430.707794,824.614075  z"/>
<path fill="#010101" opacity="1.000000" stroke="none" d=" M659.641174,358.692017   C661.587158,379.850891 648.835205,394.263275 627.879944,395.904236   C596.791687,398.338776 565.733521,401.157379 534.661743,403.802734   C531.369019,404.083038 528.070740,404.298218 525.204224,404.511658   C520.792969,389.629822 517.022583,374.699219 511.940063,360.229553   C501.753204,331.228210 486.518555,304.941376 467.278473,280.952728   C465.909851,279.246338 464.642822,276.467651 465.012512,274.504669   C471.855591,238.167389 478.531158,201.788422 486.207275,165.623123   C489.313538,150.988251 496.526978,137.922119 509.121582,128.789612   C515.932861,123.850700 521.844666,124.085495 527.246521,130.376205   C539.231750,144.333679 551.553589,158.126419 562.191223,173.086334   C576.475708,193.174957 589.775818,214.011108 602.637085,235.052887   C620.964539,265.037476 636.755127,296.392456 649.732361,329.080627   C653.512634,338.602783 656.257263,348.536102 659.641174,358.692017  z"/>
<path fill="#010101" opacity="1.000000" stroke="none" d=" M306.577118,453.651123   C276.466675,466.997070 245.158905,471.346527 212.873245,470.131226   C196.693710,469.522156 180.791794,467.184723 165.499969,461.762512   C155.124374,458.083496 145.461426,453.200348 137.612839,444.984497   C127.865105,434.780670 125.142677,422.980804 128.479095,409.706879   C136.578201,377.484772 155.537933,353.068573 183.804474,336.218903   C213.371078,318.594299 244.912018,315.179932 276.967957,328.346161   C307.556641,340.909760 328.473755,363.783112 339.589355,394.792114   C346.691132,414.603821 340.792450,429.636871 324.241821,442.150421   C318.748718,446.303650 312.713165,449.739471 306.577118,453.651123  z"/>
<path fill="#010101" opacity="1.000000" stroke="none" d=" M341.541626,291.488190   C361.378021,275.955505 383.009308,275.069397 405.974731,281.580078   C440.207977,291.285187 464.178955,313.494659 482.163879,343.157959   C494.712921,363.855652 502.783844,386.142761 504.794983,410.360596   C505.600250,420.057251 504.641815,429.675751 499.230621,438.206085   C495.269226,444.450836 489.620636,447.318695 482.194733,445.484619   C472.692169,443.137695 463.154755,440.878876 453.774048,438.103271   C436.935455,433.121094 419.754852,432.505280 402.386047,433.006195   C395.937195,433.192169 389.380859,433.034363 383.016907,432.078583   C369.559387,430.057404 362.042053,420.927856 361.972260,407.255829   C361.934052,399.765686 362.102173,392.272888 362.278015,384.783630   C362.656311,368.672974 354.801361,357.062622 342.329132,347.911896   C338.983734,345.457397 335.613190,343.017120 332.446594,340.342499   C318.729645,328.756592 318.619080,317.720581 330.741150,302.383026   C333.819000,298.488770 337.744598,295.264526 341.541626,291.488190  z"/>
<path fill="#010101" opacity="1.000000" stroke="none" d=" M334.655090,196.346954   C361.141022,189.645737 385.456268,195.427094 408.021698,208.477310   C425.873871,218.801727 434.276337,236.044540 436.807617,256.001099   C437.327393,260.098846 435.312378,264.738586 433.676178,268.811340   C432.595337,271.501740 430.333344,273.700165 426.567383,271.621796   C400.967163,257.493408 374.330505,259.257324 347.548065,267.159241   C336.278809,270.484192 328.957611,279.004517 322.423004,288.444855   C319.212433,293.083160 315.243683,297.764923 310.532135,300.659332   C303.888519,304.740540 299.675507,302.981628 296.037537,297.690735   C289.090210,287.586914 284.964386,276.762238 286.915527,264.192871   C287.651184,259.454041 287.695374,254.610474 288.363739,249.858109   C290.489166,234.745331 298.758667,223.074081 310.123932,213.665527   C317.712769,207.383270 326.203156,202.190094 334.655090,196.346954  z"/>
<path fill="#020202" opacity="1.000000" stroke="none" d=" M220.396820,183.602020   C233.045227,224.189072 245.478531,264.433075 258.138245,305.409912   C244.827072,305.409912 231.939941,305.409912 218.267410,305.409912   C217.079147,302.000397 215.550980,297.864838 214.191345,293.674591   C204.000229,262.267120 193.907455,230.827438 183.580704,199.464737   C182.459229,196.058716 183.152527,194.062378 185.534302,191.672211   C193.405289,183.773621 209.805893,177.774490 220.396820,183.602020  z"/>
<path fill="#030303" opacity="1.000000" stroke="none" d=" M124.638168,239.497101   C135.835892,234.812897 135.942184,234.717453 143.620392,243.269226   C162.808350,264.640320 181.890289,286.106628 201.470779,308.045624   C185.344711,310.006866 171.290558,315.339630 159.224518,326.111603   C150.298492,315.641937 141.355133,305.188263 132.453033,294.699585   C124.386360,285.195190 116.439301,275.587860 108.267548,266.175171   C106.369118,263.988464 106.083115,262.126099 107.069145,259.503540   C110.370010,250.724106 115.945892,244.015289 124.638168,239.497101  z"/>
<path fill="#050505" opacity="1.000000" stroke="none" d=" M312.996094,183.203842   C310.823242,184.469681 307.707245,185.535538 307.481689,187.035965   C306.439301,193.969070 299.861725,196.098801 296.680664,201.304855   C289.825836,187.592453 298.002594,169.271057 313.446808,162.845169   C332.106567,155.081390 349.922119,161.861618 356.120972,179.952988   C354.434326,179.092163 353.444733,178.524414 352.405914,178.068954   C349.560577,176.821457 347.231567,176.804184 345.057739,179.748917   C341.355438,184.764145 338.728058,184.783844 334.182312,180.486816   C329.935364,176.472244 327.943665,176.857758 325.792511,182.110794   C323.616425,187.424759 322.714355,187.665375 317.508026,184.698975   C316.255981,183.985596 314.765228,183.691147 312.996094,183.203842  z"/>
<path fill="#080808" opacity="1.000000" stroke="none" d=" M341.411896,104.289825   C328.764740,113.121758 323.221954,125.561729 320.854492,150.079834   C318.153259,151.007278 315.361145,151.965927 312.535950,152.935928   C310.392517,140.126114 319.250610,112.782372 331.309143,95.310440   C334.778748,97.288498 338.354584,99.235229 341.786346,101.409325   C342.179352,101.658302 341.767029,103.178444 341.411896,104.289825  z"/>
<path fill="#FCFCFC" opacity="1.000000" stroke="none" d=" M373.921021,812.453491   C370.918182,812.794800 368.218384,813.314758 365.639954,812.957947   C362.537811,812.528625 359.344513,811.666077 359.766113,807.187622   C359.861816,806.170715 358.885437,805.052917 358.311127,803.778809   C353.596619,808.268982 353.888092,820.862122 358.715393,825.110291   C359.983643,817.780457 366.094177,818.751892 371.058716,817.402832   C374.199432,816.549316 375.638885,817.733948 376.842255,820.283875   C380.397400,827.816895 378.983063,832.082764 371.561035,835.908447   C358.321869,842.732544 341.836151,838.151123 336.355988,826.124878   C329.651825,811.412537 336.043060,794.356018 350.056366,790.519409   C358.331696,788.253784 366.568237,788.761169 373.738953,794.263672   C380.418823,799.389465 380.593262,807.545898 373.921021,812.453491  z"/>
<path fill="#FCFCFC" opacity="1.000000" stroke="none" d=" M407.528748,838.873230   C401.190674,838.300537 395.246674,837.917969 389.410675,836.909973   C384.574951,836.074768 382.939392,832.445129 382.804138,827.764160   C382.681458,823.517517 384.585297,820.306885 388.315826,819.308167   C392.394806,818.216064 396.979736,817.823792 400.105103,822.109253   C401.122925,823.504944 402.193634,824.862061 403.466095,826.533691   C406.398865,823.272766 405.207550,820.250183 402.971649,818.952942   C399.424957,816.895020 395.261993,815.024231 391.267212,814.811462   C384.692627,814.461182 381.243500,811.074280 382.241272,804.352661   C383.289246,797.292908 387.686859,793.119629 394.047760,791.085632   C401.118805,788.824524 408.412903,789.140076 415.555847,791.029663   C423.741211,793.195007 425.451263,797.636047 421.447235,805.384399   C417.389709,804.633667 413.401764,803.632385 409.358429,803.295166   C408.004425,803.182251 406.509155,804.763306 405.078461,805.570068   C406.491058,806.187134 407.881439,807.272400 409.320068,807.340759   C415.732117,807.645142 421.779297,808.856995 424.717712,815.286255   C427.286713,820.907288 426.791840,826.715820 422.816833,831.666443   C419.078522,836.322388 413.616760,837.863892 407.528748,838.873230  z"/>
<path fill="#FAFAFA" opacity="1.000000" stroke="none" d=" M430.838806,824.240967   C434.793182,815.901917 445.848114,817.222229 448.916504,824.061340   C450.763458,828.178101 450.062347,831.893494 447.168854,835.039734   C444.070190,838.409058 440.045166,839.097717 435.853180,837.335571   C431.793915,835.629089 429.788818,832.375732 429.984833,827.933655   C430.034027,826.818665 430.456757,825.720154 430.838806,824.240967  z"/>
</svg>
